<svg width="15" height="15" viewBox="0 0 15 15" fill="none" xmlns="http://www.w3.org/2000/svg">
<path d="M0.791667 0H13.4583C13.6683 0 13.8697 0.0834075 14.0181 0.231874C14.1666 0.38034 14.25 0.581704 14.25 0.791667V13.4583C14.25 13.6683 14.1666 13.8697 14.0181 14.0181C13.8697 14.1666 13.6683 14.25 13.4583 14.25H0.791667C0.581704 14.25 0.38034 14.1666 0.231874 14.0181C0.0834075 13.8697 0 13.6683 0 13.4583V0.791667C0 0.581704 0.0834075 0.38034 0.231874 0.231874C0.38034 0.0834075 0.581704 0 0.791667 0ZM1.58333 1.58333V12.6667H12.6667V1.58333H1.58333ZM6.33571 10.2917L2.97667 6.93263L4.09608 5.81321L6.33571 8.05283L10.8134 3.57437L11.9336 4.69379L6.33571 10.2917Z" fill="#1074EB"/>
</svg>
